<svg width="225" height="35" viewBox="0 0 225 35" fill="none" xmlns="http://www.w3.org/2000/svg">
<g id="Group 69">
<path id="Vector" d="M16.0597 0.379979C19.8683 -0.0833682 23.8271 0.757231 27.1002 2.76872C30.8101 5.01971 33.6153 8.71553 34.7549 12.9044C35.9038 17.0464 35.4405 21.6157 33.4493 25.4273C31.4378 29.336 27.8751 32.4151 23.7097 33.8239C19.4347 35.2938 14.5836 34.9948 10.5324 32.9849C6.7787 31.1503 3.7419 27.9037 2.17028 24.0326C0.495338 19.9705 0.467161 15.265 2.08575 11.181C3.58693 7.33958 6.52355 4.08676 10.1865 2.19267C12.0133 1.23936 14.0154 0.625741 16.0597 0.379979ZM17.2776 7.34741C14.8466 7.69022 12.5611 8.94877 10.9723 10.8194C9.36938 12.6728 8.49277 15.1257 8.52878 17.5739C8.5413 20.0065 9.48052 22.414 11.0991 24.2251C12.81 26.1771 15.2943 27.4169 17.8802 27.6251C20.4928 27.863 23.1759 27.0287 25.203 25.3647C25.8307 24.9139 26.2299 24.1406 26.1234 23.3611C26.0201 22.259 24.9338 21.3777 23.8318 21.5186C23.226 21.5499 22.7532 21.9507 22.3008 22.3076C21.0329 23.2593 19.372 23.6381 17.8114 23.3971C15.5651 23.0777 13.5959 21.3637 12.9728 19.18C12.3545 17.145 12.9008 14.797 14.3973 13.2739C16.1098 11.4534 18.9932 10.9086 21.2552 11.9746C22.0911 12.2971 22.711 13.1345 23.6705 13.1111C24.8618 13.1627 25.9246 12.031 25.7885 10.8429C25.7509 10.0508 25.1827 9.42464 24.5362 9.03174C22.4433 7.57908 19.7931 6.97328 17.276 7.34427L17.2776 7.34741Z" fill="white"/>
<path id="Vector_2" d="M91.7635 3.94904C93.2255 4.34664 94.7001 4.71293 96.1575 5.12775C96.2623 6.97332 96.1762 8.85645 96.1997 10.7177C97.7306 9.44189 99.7656 8.64825 101.776 8.90967C103.083 9.05055 104.36 9.59686 105.305 10.522C106.359 11.5332 106.976 12.9326 107.201 14.3603C107.381 15.4247 107.317 16.5079 107.329 17.5818C107.322 20.03 107.342 22.4814 107.32 24.9311L107.265 24.9812C105.792 25.0047 104.321 24.9828 102.848 24.9891C102.845 22.1401 102.851 19.2927 102.845 16.4438C102.857 15.265 102.399 13.9783 101.333 13.3663C99.7171 12.438 97.4551 13.1721 96.5989 14.8033C96.2232 15.4482 96.1841 16.2136 96.1997 16.94C96.2028 19.623 96.2013 22.306 96.2013 24.9891C94.7204 24.9906 93.2412 24.9906 91.7619 24.9891C91.7604 17.9747 91.7604 10.9634 91.7619 3.94904H91.7635Z" fill="white"/>
<path id="Vector_3" d="M204.897 5.1023C206.387 4.7094 207.88 4.31336 209.374 3.92358C209.383 10.9458 209.364 17.9664 209.364 24.9887C208.179 24.9965 206.996 24.9746 205.813 25.0012C205.62 24.6177 205.459 24.2201 205.309 23.8193C204.418 24.5597 203.355 25.117 202.193 25.2563C199.075 25.7166 195.805 24.1261 194.185 21.4337C192.895 19.3612 192.599 16.7079 193.395 14.399C194.068 12.4141 195.538 10.7173 197.405 9.76551C199.712 8.58054 202.751 8.43339 204.898 10.041C204.891 8.39426 204.895 6.7475 204.897 5.10074V5.1023ZM200.652 13.1921C199.933 13.3048 199.246 13.6179 198.711 14.111C197.058 15.5965 196.992 18.5002 198.609 20.0359C200.099 21.4635 202.74 21.3586 204.13 19.8418C205.57 18.314 205.471 15.6419 203.956 14.2002C203.097 13.3596 201.827 13.0058 200.652 13.1937V13.1921Z" fill="white"/>
<path id="Vector_4" d="M216.603 8.95505C219.393 8.27724 222.346 9.20863 224.576 10.9211C223.76 11.9433 222.999 13.0062 222.202 14.0425C221.219 13.4696 220.133 13.0547 219.006 12.8935C218.439 12.834 217.823 12.8371 217.319 13.1283C216.866 13.3678 216.807 14.0926 217.276 14.3493C218.194 14.9081 219.277 15.0897 220.291 15.4122C221.697 15.8426 223.159 16.4484 224.079 17.6506C225.327 19.3271 225.075 21.8474 223.661 23.3501C222.309 24.8576 220.172 25.3647 218.214 25.2458C215.719 25.1738 213.317 24.1281 211.461 22.4798C212.272 21.456 213.114 20.4589 213.929 19.4414C215.182 20.3603 216.669 20.9911 218.223 21.1289C218.793 21.1617 219.404 21.1711 219.926 20.9066C220.302 20.7328 220.462 20.221 220.241 19.8672C220.049 19.5682 219.709 19.4195 219.4 19.2755C218.169 18.7433 216.827 18.5147 215.609 17.9481C214.559 17.4722 213.544 16.8022 212.914 15.816C212.009 14.4197 212.095 12.4896 213.048 11.1372C213.864 9.95375 215.219 9.24464 216.603 8.95505Z" fill="white"/>
<path id="Vector_5" d="M46.3186 10.403C49.4227 8.13014 54.0766 8.40095 56.9427 10.9447C56.1804 12.0122 55.4337 13.0939 54.6745 14.1662C53.7525 13.432 52.6223 12.9061 51.4217 12.9327C49.7499 12.892 48.1986 14.0895 47.6993 15.6658C47.0356 17.5161 47.7478 19.8171 49.4995 20.7939C51.1384 21.7597 53.2735 21.2792 54.6651 20.0879C55.4416 21.1383 56.1554 22.2341 56.9427 23.275C55.224 24.8858 52.7617 25.537 50.4465 25.3523C48.3098 25.1973 46.2451 24.1594 44.8879 22.4939C43.4305 20.747 42.795 18.3848 43.0611 16.137C43.2975 13.886 44.4778 11.732 46.3186 10.403Z" fill="white"/>
<path id="Vector_6" d="M60.4725 10.6321C62.4198 9.08078 65.1185 8.44681 67.5276 9.1387C68.3651 9.37037 69.0789 9.87128 69.7582 10.391C69.9273 9.97147 70.1026 9.55352 70.2717 9.13556C71.441 9.11678 72.6119 9.10895 73.7812 9.14026C73.753 14.4234 73.7781 19.7065 73.7687 24.9896C72.5774 24.9927 71.3878 24.9896 70.195 24.9911C70.0275 24.5951 69.8835 24.1881 69.6706 23.814C68.7674 24.6749 67.5589 25.1758 66.3254 25.2917C63.9539 25.5406 61.5056 24.6561 59.8197 22.9734C58.101 21.2969 57.1931 18.8424 57.3872 16.4489C57.539 14.1886 58.6927 12.0268 60.4725 10.6321ZM64.4673 13.3323C63.9492 13.5014 63.4686 13.78 63.0726 14.1541C61.4555 15.6616 61.418 18.5497 63.046 20.0634C64.5487 21.4737 67.1832 21.3501 68.5592 19.8207C70.0181 18.246 69.8631 15.4878 68.2383 14.0837C67.2317 13.1867 65.7415 12.9253 64.4673 13.3323Z" fill="white"/>
<path id="Vector_7" d="M80.0925 9.38124C81.2712 8.9492 82.5469 8.80675 83.7977 8.88032C85.7309 9.05095 87.542 9.90094 89.1074 11.0155C88.3184 12.0658 87.5295 13.1146 86.7374 14.1634C85.3756 13.4293 83.7898 12.7436 82.2182 13.0927C81.6312 13.1663 81.1851 13.9646 81.711 14.3935C82.3215 14.8553 83.0948 15.015 83.8118 15.2466C85.3834 15.6787 87.0427 16.1624 88.2339 17.3411C89.4064 18.4838 89.6881 20.3263 89.1653 21.8415C88.6988 23.2143 87.5655 24.2944 86.2365 24.8376C84.6195 25.506 82.8052 25.4857 81.1084 25.1789C79.2002 24.8251 77.4392 23.8718 75.9912 22.5929C76.8146 21.5817 77.6411 20.5751 78.4645 19.5655C79.781 20.5329 81.362 21.1872 83.0056 21.267C83.5754 21.2655 84.2391 21.2717 84.6852 20.8585C85.0202 20.5063 84.8762 19.8973 84.4567 19.6782C83.4095 19.0536 82.1838 18.8454 81.0489 18.4353C79.7622 17.9751 78.4817 17.3129 77.6317 16.2109C76.6549 14.9461 76.5626 13.1131 77.3061 11.7152C77.8806 10.6054 78.9388 9.81328 80.094 9.38124H80.0925Z" fill="white"/>
<path id="Vector_8" d="M114.59 11.046C115.258 9.96903 116.367 9.15974 117.628 8.94685C119.236 8.63221 120.89 9.16287 122.219 10.0677C121.553 11.3231 120.884 12.5801 120.216 13.837C119.461 13.3549 118.588 12.9542 117.671 13.0544C116.572 13.1545 115.612 13.9247 115.155 14.9109C114.746 15.7358 114.679 16.6719 114.678 17.5783C114.676 20.0484 114.678 22.5201 114.676 24.9902C113.183 24.9902 111.689 24.9902 110.197 24.9902C110.196 19.7009 110.193 14.4115 110.199 9.12217C111.392 9.1253 112.588 9.12374 113.782 9.12374C114.053 9.76397 114.322 10.4058 114.588 11.0476L114.59 11.046Z" fill="white"/>
<path id="Vector_9" d="M125.741 9.93924C127.728 8.73078 130.229 8.59303 132.432 9.23013C134.15 9.73105 135.67 10.8894 136.566 12.4454C137.654 14.3019 137.921 16.5466 137.627 18.652C133.903 18.6567 130.179 18.6489 126.457 18.6567C126.878 19.9028 127.905 20.9453 129.198 21.2662C130.754 21.7029 132.425 21.1707 133.628 20.1391C134.355 21.1942 135.099 22.2399 135.827 23.2965C134.11 24.8008 131.78 25.5334 129.512 25.3612C127.286 25.2344 125.115 24.1731 123.714 22.4261C122.18 20.5649 121.595 18.0212 121.994 15.6591C122.352 13.3376 123.702 11.1446 125.741 9.93768V9.93924ZM128.121 13.1388C127.266 13.5991 126.702 14.4537 126.414 15.3632C128.717 15.3679 131.016 15.3664 133.318 15.3632C133.103 14.6979 132.788 14.0452 132.266 13.5662C131.17 12.5471 129.41 12.4376 128.121 13.1388Z" fill="white"/>
<path id="Vector_10" d="M165.18 10.9007C167.036 9.25399 169.678 8.50575 172.116 9.02075C173.104 9.23051 174.007 9.73455 174.763 10.3983C174.962 9.98032 175.135 9.55141 175.314 9.1225C176.475 9.1178 177.638 9.1225 178.8 9.12093C178.805 14.4087 178.801 19.6981 178.8 24.9874C177.609 24.9874 176.417 24.9874 175.226 24.9874C175.06 24.593 174.896 24.2001 174.733 23.8072C173.932 24.5163 172.953 25.0281 171.895 25.2097C169.372 25.6637 166.673 24.7855 164.86 22.9806C163.176 21.3448 162.265 18.9624 162.406 16.6221C162.508 14.4432 163.534 12.3284 165.18 10.8976V10.9007ZM169.516 13.3271C168.994 13.4914 168.509 13.7716 168.11 14.1457C166.482 15.6548 166.446 18.5616 168.087 20.0738C169.572 21.4497 172.144 21.3495 173.534 19.8812C175.049 18.3206 174.916 15.5154 173.277 14.091C172.274 13.1909 170.79 12.9248 169.516 13.3271Z" fill="white"/>
<path id="Vector_11" d="M186.26 11.031C186.936 9.93679 188.073 9.13376 189.351 8.93496C190.942 8.65006 192.565 9.17916 193.875 10.0683C193.204 11.33 192.529 12.5901 191.861 13.8518C191.116 13.3759 190.262 12.9579 189.353 13.0519C188.289 13.138 187.348 13.8596 186.869 14.7988C186.441 15.6003 186.337 16.5254 186.34 17.4224C186.338 19.9457 186.341 22.4675 186.34 24.9893C184.842 24.9799 183.344 25.0128 181.849 24.9721C181.872 19.689 181.852 14.4059 181.858 9.1228C183.054 9.1228 184.248 9.12124 185.443 9.12437C185.718 9.75834 185.958 10.408 186.26 11.031Z" fill="white"/>
<path id="Vector_12" d="M137.707 9.12278C139.29 9.12278 140.872 9.12121 142.455 9.12278C143.51 12.5994 144.549 16.0855 145.622 19.5575C146.518 16.0777 147.42 12.5994 148.32 9.12121C149.964 9.12121 151.609 9.11652 153.253 9.12434C152.8 10.4205 152.351 11.7181 151.903 13.0158C151.802 13.2115 151.889 13.4134 151.957 13.606C152.656 15.5752 153.332 17.5538 154.031 19.5246C155.151 16.0746 156.141 12.5775 157.232 9.11652C158.875 9.12904 160.519 9.11965 162.164 9.12121C160.262 14.4121 158.349 19.6984 156.444 24.9893C155.02 24.9893 153.594 24.9924 152.169 24.9877C151.401 22.9528 150.66 20.9068 149.87 18.8812C149.165 20.9178 148.456 22.9512 147.754 24.9877C146.313 24.9956 144.875 24.9846 143.438 24.994C141.514 19.7078 139.618 14.4137 137.707 9.12278Z" fill="white"/>
</g>
</svg>
