<svg width="144" height="29" viewBox="0 0 144 29" fill="none" xmlns="http://www.w3.org/2000/svg">
<path d="M13.8696 9.02482C15.7366 9.02482 17.5352 10.0038 18.5255 11.3812C18.5483 11.4154 18.5711 11.4495 18.5938 11.4837C18.628 11.5406 18.6849 11.5975 18.7191 11.6544C19.3793 12.474 20.3924 12.9977 21.5308 12.9977C23.5229 12.9977 25.1394 11.3812 25.1394 9.3891C25.1394 8.45565 24.7751 7.60188 24.1946 6.9644C21.7016 3.90221 18.7418 2.13776 13.8583 2.13776C6.09466 2.13776 0.254883 7.51081 0.254883 15.0467C0.254883 22.5827 6.09466 28.0696 13.8696 28.0696C18.8329 28.0696 21.7585 26.3165 24.2059 23.573C24.7524 22.9469 25.0939 22.1273 25.0939 21.228C25.0939 19.2701 23.5115 17.6877 21.5536 17.6877C20.4835 17.6877 19.5273 18.1658 18.8784 18.9172C17.7173 20.0783 16.374 21.2394 13.8696 21.2394C10.3066 21.2394 8.31446 18.6667 8.31446 15.0467C8.31446 11.4268 10.3066 9.02482 13.8696 9.02482ZM124.245 12.0073C120.853 11.2446 119.282 11.0739 119.282 9.67369C119.282 8.68332 120.158 8.21659 121.968 8.21659C123.778 8.21659 125.588 9.09313 126.761 10.0835C127.307 10.5958 128.047 10.9145 128.855 10.9145C130.563 10.9145 131.94 9.53709 131.94 7.82955C131.94 6.91886 131.542 6.11063 130.904 5.54145C128.867 3.46964 125.952 2.13776 121.9 2.13776C116.584 2.13776 112.258 4.41447 112.258 10.0266C112.258 15.2289 116.06 17.0958 119.441 17.9723C123.471 19.0196 125.053 19.0196 125.053 20.3629C125.053 21.4102 124.233 21.8769 121.672 21.8769C119.657 21.8769 117.779 21.137 116.219 19.8848L116.299 19.9531C115.047 18.8147 113.1 18.8602 111.916 20.0897C110.949 21.0914 110.801 22.5713 111.427 23.7324C111.45 23.7779 111.472 23.8121 111.495 23.8576C111.552 23.9601 111.609 24.0512 111.677 24.1422C111.723 24.2105 111.78 24.2674 111.837 24.3244C111.894 24.3927 111.951 24.461 112.019 24.5293C112.064 24.5748 112.121 24.609 112.178 24.6545C114.341 26.6011 117.472 28.0582 122.23 28.0582C130.062 28.0582 132.452 24.3244 132.452 19.7595C132.452 14.5003 127.899 12.8042 124.279 11.9846L124.245 12.0073ZM65.1299 2.13776C57.4119 2.13776 51.4013 7.56773 51.4013 15.172C51.4013 22.7762 57.4232 28.0809 65.1299 28.0809C72.8366 28.0809 78.8016 22.7079 78.8016 15.172C78.8016 7.63603 72.8366 2.13776 65.1299 2.13776ZM65.1299 21.4215C61.6238 21.4215 59.4609 18.8489 59.4609 15.172C59.4609 11.4951 61.6238 8.92237 65.1299 8.92237C68.6361 8.92237 70.742 11.4381 70.742 15.172C70.742 18.9058 68.6361 21.4215 65.1299 21.4215ZM96.5941 9.03621C98.4611 9.03621 100.26 10.0152 101.25 11.3926C101.273 11.4268 101.307 11.4609 101.33 11.5064C101.364 11.5634 101.409 11.6089 101.444 11.6658C102.104 12.4854 103.117 13.0091 104.255 13.0091C106.247 13.0091 107.875 11.3926 107.875 9.40048C107.875 8.45565 107.511 7.61326 106.93 6.9644C104.449 3.90221 101.478 2.14914 96.5941 2.14914C88.8192 2.14914 82.9794 7.52219 82.9794 15.0581C82.9794 22.5941 88.8192 28.0809 96.5941 28.0809C101.557 28.0809 104.483 26.3279 106.93 23.5844C107.477 22.9583 107.818 22.1387 107.818 21.2394C107.818 19.2814 106.236 17.6991 104.278 17.6991C103.208 17.6991 102.252 18.1772 101.603 18.9285C100.442 20.0897 99.0985 21.2508 96.5941 21.2508C93.0311 21.2508 91.039 18.6781 91.039 15.0581C91.039 11.4381 93.0311 9.03621 96.5941 9.03621Z" fill="white"/>
<path d="M47.4966 3.73193C46.29 3.09445 45.4134 2.95785 43.6148 3.10583C40.3591 3.37904 37.832 5.66714 37.3766 6.23632V6.40707C37.3766 6.40707 37.3766 6.30462 37.3652 6.25908V6.23632C37.2059 4.15312 35.4756 2.5025 33.3468 2.5025C31.2181 2.5025 29.3626 4.25557 29.3057 6.44122V24.0744C29.374 26.2487 31.1498 27.979 33.3468 27.979C35.5439 27.979 37.3425 26.2031 37.388 24.0061V19.2136C37.388 12.668 41.1674 11.0288 43.2847 10.9833C43.8425 10.9833 45.2768 11.5183 46.4038 11.3134C48.6008 10.9036 50.0579 8.80901 49.6481 6.61198C49.4091 5.32563 48.5895 4.28973 47.4966 3.74331V3.73193Z" fill="white"/>
<path d="M134.786 2.39899H134.9V1.78428C134.9 1.62491 134.9 1.48831 134.912 1.39724C134.912 1.30617 134.946 1.22649 134.98 1.15818C135.025 1.08988 135.082 1.03296 135.151 0.98743C135.219 0.941896 135.31 0.919128 135.401 0.919128C135.538 0.919128 135.652 0.964663 135.754 1.06711C135.822 1.13542 135.868 1.2151 135.891 1.30617C135.913 1.39724 135.913 1.53384 135.913 1.7046V2.41038H136.289C136.437 2.41038 136.551 2.44453 136.619 2.51283C136.699 2.58113 136.733 2.6722 136.733 2.77465C136.733 2.91126 136.676 3.01371 136.574 3.05924C136.46 3.11616 136.312 3.13893 136.107 3.13893H135.913V5.0286C135.913 5.18797 135.913 5.31319 135.925 5.40426C135.936 5.49533 135.97 5.56363 136.016 5.60916C136.061 5.66608 136.152 5.68885 136.255 5.68885C136.312 5.68885 136.391 5.68885 136.494 5.6547C136.596 5.63193 136.676 5.62055 136.733 5.62055C136.813 5.62055 136.892 5.6547 136.961 5.723C137.029 5.7913 137.063 5.87099 137.063 5.97344C137.063 6.14419 136.972 6.26941 136.79 6.36048C136.608 6.45155 136.346 6.49708 136.016 6.49708C135.697 6.49708 135.458 6.44017 135.287 6.33771C135.128 6.22388 135.014 6.07589 134.969 5.89375C134.912 5.70023 134.889 5.44979 134.889 5.13105V3.16169H134.752C134.604 3.16169 134.49 3.12754 134.411 3.05924C134.331 2.99094 134.297 2.89987 134.297 2.79742C134.297 2.69497 134.342 2.6039 134.422 2.5356C134.502 2.4673 134.627 2.43315 134.775 2.43315L134.786 2.39899Z" fill="white"/>
<path d="M140.945 4.47184V5.83787C140.945 6.05416 140.899 6.21353 140.797 6.32737C140.706 6.42982 140.569 6.48674 140.41 6.48674C140.25 6.48674 140.125 6.42982 140.034 6.32737C139.932 6.21353 139.886 6.05416 139.886 5.83787V4.19863C139.886 3.93681 139.886 3.74329 139.863 3.5953C139.852 3.4587 139.795 3.33348 139.727 3.24241C139.647 3.15135 139.522 3.10581 139.362 3.10581C139.032 3.10581 138.805 3.21965 138.702 3.44732C138.588 3.67499 138.543 4.0165 138.543 4.43769V5.82649C138.543 6.04278 138.497 6.20215 138.395 6.3046C138.292 6.41843 138.167 6.46397 138.008 6.46397C137.848 6.46397 137.723 6.40705 137.621 6.3046C137.518 6.19076 137.473 6.03139 137.473 5.82649V2.90091C137.473 2.70739 137.518 2.5594 137.609 2.45695C137.7 2.35449 137.814 2.30896 137.962 2.30896C138.11 2.30896 138.224 2.35449 138.315 2.44556C138.406 2.53663 138.452 2.67323 138.452 2.8326V2.93506C138.634 2.71877 138.816 2.5594 139.021 2.45695C139.226 2.35449 139.453 2.30896 139.704 2.30896C139.954 2.30896 140.182 2.36588 140.364 2.46833C140.546 2.57078 140.706 2.73015 140.819 2.93506C140.99 2.71877 141.184 2.57078 141.377 2.46833C141.582 2.36588 141.798 2.30896 142.037 2.30896C142.322 2.30896 142.561 2.36588 142.766 2.47971C142.971 2.59355 143.119 2.75292 143.221 2.95782C143.312 3.13996 143.358 3.43593 143.358 3.83436V5.83787C143.358 6.05416 143.312 6.21353 143.21 6.32737C143.108 6.42982 142.982 6.48674 142.823 6.48674C142.664 6.48674 142.538 6.42982 142.436 6.32737C142.333 6.22491 142.288 6.05416 142.288 5.84925V4.11895C142.288 3.89128 142.288 3.72052 142.254 3.58392C142.231 3.44732 142.185 3.34487 142.106 3.2538C142.026 3.16273 141.901 3.11719 141.73 3.11719C141.594 3.11719 141.468 3.16273 141.343 3.24241C141.218 3.3221 141.127 3.42455 141.058 3.56115C140.979 3.73191 140.945 4.03926 140.945 4.48322V4.47184Z" fill="white"/>
</svg>
