<svg width="127" height="18" viewBox="0 0 127 18" fill="none" xmlns="http://www.w3.org/2000/svg">
<g clip-path="url(#clip0_288_7140)">
<path d="M5.16663 17.3688C6.65164 17.3688 7.9201 16.8892 8.84823 15.9766C9.80731 15.0175 10.3797 13.5325 10.3797 11.5834V0.414795H8.46151V11.6298C8.46151 14.275 7.06931 15.6517 5.1821 15.6517C3.4341 15.6517 2.38222 14.8164 1.36127 13.254L0 14.4297C1.05189 16.1467 2.64519 17.3997 5.16663 17.3997" fill="white"/>
<path d="M44.5812 0.414795L39.6466 9.526L34.7584 0.414795H32.5928L38.6566 11.274V17.1367H40.5747V11.2585L46.6386 0.414795H44.5812Z" fill="white"/>
<path d="M84.2437 0.414795H82.3564V17.1367H84.2437V0.414795Z" fill="white"/>
<path d="M23.1883 2.48761L26.7152 11.0729H19.615L23.1728 2.48761H23.1883ZM22.3375 0.291016L15.3301 17.1367H17.1245L18.9653 12.7126H27.4113L29.2367 17.1367H31.1084L24.0855 0.291016H22.3375Z" fill="white"/>
<path d="M104.539 0.414795V14.3214L93.3394 0.414795H91.4521V17.1367H93.3394V3.35389L104.539 17.1367H106.426V0.414795H104.539Z" fill="white"/>
<path d="M120.287 17.4306C123.103 17.4306 125.454 16.255 127.001 14.8783V8.21114H120.844V9.91272H125.175V14.0739C124.031 15.002 122.252 15.7445 120.349 15.7445C116.281 15.7445 113.728 12.7745 113.728 8.78349V8.73708C113.728 5.00907 116.389 1.88434 120.086 1.88434C122.453 1.88434 123.891 2.67326 125.175 3.80249L126.397 2.36388C124.727 0.956206 122.979 0.136353 120.163 0.136353C115.152 0.136353 111.779 4.20468 111.779 8.78349V8.8299C111.779 13.6098 115.028 17.4306 120.287 17.4306Z" fill="white"/>
<path d="M71.7609 17.8792L70.8018 17.508C68.3577 16.5798 65.7435 14.8628 63.5005 12.7435C61.2575 14.8628 58.6587 16.5644 56.1991 17.508L55.2401 17.8792L50.3828 0.414795H52.3319L56.493 15.3733C58.4267 14.4761 60.4222 13.0993 62.2011 11.4287C60.9481 10.0365 58.8598 7.42222 58.8907 5.2411C58.8907 4.00359 59.3857 2.84342 60.252 1.97716C61.1183 1.1109 62.2784 0.615891 63.5159 0.615891C64.7535 0.615891 65.9136 1.09543 66.7799 1.97716C67.6461 2.84342 68.1257 4.00359 68.1412 5.2411C68.1721 7.42222 66.0838 10.0365 64.8308 11.4287C66.5943 13.0993 68.6052 14.4761 70.5388 15.3733L74.6845 0.414795H76.6336L71.7609 17.8947V17.8792ZM63.5005 2.48763C62 2.48763 60.7625 3.72515 60.747 5.2411C60.747 6.1383 61.5823 7.94817 63.5005 10.0674C65.4032 7.94817 66.2539 6.1383 66.2539 5.2411C66.2385 3.72515 65.001 2.48763 63.5005 2.48763Z" fill="white"/>
</g>
<defs>
<clipPath id="clip0_288_7140">
<rect width="127" height="17.7583" fill="white" transform="translate(0 0.12085)"/>
</clipPath>
</defs>
</svg>
