<svg width="161" height="41" viewBox="0 0 161 41" fill="none" xmlns="http://www.w3.org/2000/svg">
<g clip-path="url(#clip0_355_5670)">
<path d="M0.956543 36.6538H160.955V40.6222H0.956543V36.6538Z" fill="white"/>
<path d="M74.0121 0.387421L66.7968 9.94766L58.6796 0.387421H41.9043L55.7933 16.8022V25.4605H70.4043V17.3433L83.2117 0.387746L74.0121 0.387421Z" fill="white"/>
<path d="M85.2012 0.387408V25.4603H118.752V20.2292H98.3691V15.5393H116.588V10.3082H98.3691V5.43782H118.752V0.387115L85.2012 0.387408Z" fill="white"/>
<path d="M26.5774 0.387421L20.8052 11.7516L15.033 0.387421H1.14404V25.4603H4.57133V9.04549L13.0492 25.4603H20.4449L27.6602 9.04549V25.4603H40.4676V0.387421H26.5786H26.5774Z" fill="white"/>
<path d="M160.774 7.42736C160.774 2.557 156.445 0.392426 151.033 0.392426H124.337V25.4653H137.505V15.7247L145.442 25.4653H160.774L152.115 14.6419C156.986 14.2812 160.774 11.7565 160.774 7.42736ZM143.096 9.59193H137.504V5.44317H143.096C144.72 5.44317 146.163 6.16468 146.163 7.60773C146.163 8.87044 144.72 9.59193 143.096 9.59193Z" fill="white"/>
</g>
<defs>
<clipPath id="clip0_355_5670">
<rect width="159.999" height="40.2255" fill="white" transform="translate(0.956543 0.387238)"/>
</clipPath>
</defs>
</svg>
