<svg width="40" height="40" viewBox="0 0 40 40" fill="none" xmlns="http://www.w3.org/2000/svg">
<g clip-path="url(#clip0_723_1456)">
<path d="M14.3098 13.1702C15.8131 11.6652 15.8131 9.22355 14.3098 7.71855L10.2198 3.63021C8.71476 2.12521 6.27309 2.12521 4.76809 3.63021L2.52642 5.87188C0.579757 7.81855 0.27809 10.8535 1.79476 13.1485C8.30976 22.9985 17.0014 31.6902 26.8514 38.2052C29.1431 39.7202 32.1864 39.4185 34.1264 37.4752L36.3698 35.2319C37.8748 33.7269 37.8748 31.2852 36.3698 29.7802L32.2814 25.6919C30.7781 24.1852 28.3364 24.1852 26.8298 25.6919L25.4681 27.0535C20.9848 23.3802 16.6198 19.0152 12.9464 14.5302L14.3098 13.1702Z" stroke="#C9CDBE" stroke-miterlimit="10" stroke-linecap="round" stroke-linejoin="round"/>
</g>
<defs>
<clipPath id="clip0_723_1456">
<rect width="40" height="40" fill="white"/>
</clipPath>
</defs>
</svg>
