<svg width="38" height="38" viewBox="0 0 38 38" fill="none" xmlns="http://www.w3.org/2000/svg">
<path d="M14.31 11.17C15.8133 9.665 15.8133 7.22333 14.31 5.71833L10.22 1.63C8.715 0.125001 6.27333 0.125001 4.76833 1.63L2.52667 3.87167C0.580001 5.81833 0.278334 8.85333 1.795 11.1483C8.31 20.9983 17.0017 29.69 26.8517 36.205C29.1433 37.72 32.1867 37.4183 34.1267 35.475L36.37 33.2317C37.875 31.7267 37.875 29.285 36.37 27.78L32.2817 23.6917C30.7783 22.185 28.3367 22.185 26.83 23.6917L25.4683 25.0533C20.985 21.38 16.62 17.015 12.9467 12.53L14.31 11.17Z" stroke="#032C1F" stroke-miterlimit="10" stroke-linecap="round" stroke-linejoin="round"/>
</svg>
