<svg width="48" height="39" viewBox="0 0 48 39" fill="none" xmlns="http://www.w3.org/2000/svg">
<path d="M44.5616 0C32.8711 7.28451 26.957 17.5928 26.957 26.8015C26.957 34.6358 32.3209 38.8966 37.8223 38.8966C43.3238 38.8966 48 34.3609 48 29.0006C48 23.5029 43.7364 18.9672 38.3725 18.9672H37.5473C38.3725 13.332 41.9484 8.7964 47.7249 3.1612L44.5616 0ZM17.6046 0C5.91404 7.28451 0 17.5928 0 26.8015C0 34.6358 5.3639 38.8966 10.8653 38.8966C16.3668 38.8966 21.043 34.3609 21.043 29.0006C21.043 23.5029 16.7794 18.9672 11.4155 18.9672H10.5903C11.4155 13.332 14.9914 8.7964 20.7679 3.1612L17.6046 0Z" fill="#C9CDBE"/>
</svg>
